<?xml version="1.0" encoding="UTF-8"?>
<svg id="Capa_2" data-name="Capa 2" xmlns="http://www.w3.org/2000/svg" viewBox="0 0 268.96 347.62">
  <defs>
    <style>
      .cls-1 {
        fill: #2b324b;
        stroke-width: 0px;
      }
    </style>
  </defs>
  <g id="Capa_1-2" data-name="Capa 1">
    <g>
      <path class="cls-1" d="m21.98,342.6s122.61-127.46,144.26-147.76c0,0-59.16,64.38-75.29,80.12-13.17,12.84-68.96,67.65-68.96,67.65Z"/>
      <path class="cls-1" d="m261.64,78.33c-11.99-3.62-14.76,7.98-16.54,17.1l-.56.84c-3.32,2.62-6.49,5.48-9.53,8.41-27.22,26.28-54.52,52.47-81.3,79.2l-43.87,43.31q-51.51,50.18-103.03,100.36c-1.03,1.07-4.28,4.21-4.77,4.91-3.02,4.31-2.85,10.12,1.68,13.32,7.11,5.01,10.7-1.33,15.42-5.61q50.46-50.95,100.93-101.91l42.75-45c26.64-26.76,51.42-55.42,78.08-82.14,2.91-2.92,5.79-5.91,8.55-8.97,5.22-1.85,15.24-2.77,18.08-7.71,3.29-5.72.74-14.12-5.89-16.12Zm-10.46,20.72l.71-2.35s8.47.94,15.76-5.53c-2.71,6.94-16.47,7.88-16.47,7.88Z"/>
      <path class="cls-1" d="m266.88,269.99c-.44-.72-3.49-4.06-4.46-5.19q-48.35-53.24-96.69-106.48l-41.14-45.92c-25.1-28.31-50.74-56.13-76.3-84.03-2.85-3.12-5.84-6.16-9-8.98l-.51-.87c-1.22-9.21-3.27-20.96-15.46-18.08-6.74,1.59-9.8,9.82-6.86,15.73,2.54,5.1,12.48,6.64,17.58,8.8,2.57,3.23,5.26,6.39,7.99,9.48,1.87,2.12,3.72,4.28,5.57,6.42-.29,2.06-.02,4.97,3.12,6.77,5.27,3.01,179.82,221.29,197.12,228.35,2.4.98,3.17,3.82,4.27,3.74,3.26,3.77,6.48,7.02,12.29,3.44,4.72-2.91,5.25-8.7,2.49-13.19ZM16.65,12.17c1.59,2.74,8.47,11.03,15.53,8.47l1.94,2.03s-15.79-1.06-17.47-10.5Zm231.18,261.35c-3.88-1.76-198.18-229.76-198.18-229.76l202.24,232.24-4.06-2.47Z"/>
    </g>
  </g>
</svg>